<?xml version="1.0" standalone="no"?>
<!DOCTYPE svg PUBLIC "-//W3C//DTD SVG 20010904//EN"
 "http://www.w3.org/TR/2001/REC-SVG-20010904/DTD/svg10.dtd">
<svg version="1.0" xmlns="http://www.w3.org/2000/svg"
 width="559.000000pt" height="558.000000pt" viewBox="0 0 559.000000 558.000000"
 preserveAspectRatio="xMidYMid meet">

<g transform="translate(0.000000,558.000000) scale(0.100000,-0.100000)"
fill="#000000" stroke="none">
<path d="M2054 4838 c-123 -132 -236 -317 -278 -458 -25 -83 -56 -286 -56
-365 0 -495 393 -1026 863 -1165 33 -10 33 -7 2 54 -24 48 -34 133 -17 150 4
4 7 47 7 94 l0 87 -53 -18 c-59 -20 -72 -16 -125 34 -16 16 -34 29 -38 29 -4
0 -29 14 -54 31 -26 17 -74 45 -108 61 -34 17 -72 38 -85 48 l-23 19 23 4 c19
4 18 5 -7 6 l-30 3 29 9 c17 4 35 5 40 0 6 -4 25 -4 41 -1 33 8 31 9 -55 36
-132 41 -266 128 -301 195 -36 72 -59 187 -66 331 l-6 137 143 70 c108 54 138
72 124 78 -29 11 -45 30 -38 47 4 10 1 16 -7 16 -7 0 48 62 122 138 128 131
182 202 166 219 -14 13 -100 -40 -170 -106 -37 -35 -70 -61 -73 -58 -4 3 1 13
10 22 9 9 16 25 16 36 0 10 4 19 9 19 5 0 8 11 7 25 -1 30 -16 33 -23 5 -4
-15 -13 -20 -33 -18 -20 1 -26 6 -23 19 3 9 -3 19 -12 23 -13 5 -15 1 -10 -17
5 -18 4 -19 -5 -5 -12 19 -3 51 13 41 6 -3 7 -1 3 5 -4 6 6 25 21 42 15 16 34
37 41 45 7 9 18 12 24 9 7 -5 8 -2 3 5 -5 8 8 29 36 57 24 24 40 44 37 44 -3
0 -41 -37 -84 -82z m-29 -298 c-3 -5 -11 -10 -16 -10 -6 0 -7 5 -4 10 3 6 11
10 16 10 6 0 7 -4 4 -10z"/>
<path d="M3556 4893 c-3 -3 -34 -6 -68 -5 -35 0 -56 -2 -48 -4 8 -3 29 -12 47
-20 17 -8 33 -14 36 -14 6 0 150 -100 187 -130 l25 -20 -45 15 c-25 8 -74 24
-108 35 -74 24 -97 20 -110 -19 -14 -39 -6 -47 60 -61 53 -10 151 -65 170 -94
4 -6 10 -8 13 -4 9 8 45 -23 45 -39 0 -6 9 -15 20 -18 25 -8 120 -94 120 -108
0 -5 -7 -15 -16 -21 -13 -10 -7 -19 45 -65 34 -29 61 -60 61 -68 0 -9 8 -25
18 -36 25 -27 29 -196 8 -346 -27 -189 -17 -171 -91 -171 -71 0 -185 -22 -147
-28 20 -3 20 -5 7 -18 -12 -13 -22 -81 -16 -117 1 -4 -97 -56 -216 -115 -120
-60 -238 -122 -262 -138 -24 -16 -54 -36 -67 -44 -13 -8 -24 -19 -24 -23 0 -5
6 -5 13 0 6 4 28 9 47 10 64 4 80 7 80 16 0 5 8 6 17 3 10 -4 14 -4 11 0 -15
15 45 47 91 49 25 1 47 4 49 5 1 1 5 3 10 4 4 1 23 10 42 21 56 31 220 105
233 105 11 0 -45 -34 -203 -125 -109 -63 -258 -160 -290 -190 -14 -13 -57 -44
-96 -69 -69 -44 -72 -47 -79 -93 -4 -27 -16 -63 -27 -82 l-21 -33 34 7 c136
29 280 92 409 178 88 58 280 248 332 327 168 256 248 612 193 865 -24 113 -64
231 -91 268 -13 18 -28 42 -33 54 -6 12 -19 28 -30 35 -14 8 -19 19 -15 34 6
25 -40 79 -58 68 -6 -4 -8 -3 -5 3 4 6 -3 13 -14 16 -12 3 -18 10 -14 16 3 6
0 17 -7 25 -7 7 -19 23 -27 34 -8 12 -18 19 -22 16 -4 -2 -11 1 -15 7 -4 7 -3
9 3 6 6 -4 14 0 17 9 9 22 7 31 -3 16 -6 -11 -12 -10 -26 4 -11 11 -30 17 -49
16 -17 -1 -38 2 -46 8 -12 8 -10 10 10 10 22 1 23 2 8 11 -10 5 -21 10 -25 10
-5 1 -15 5 -24 10 -9 4 -19 6 -23 2z m241 -273 c31 -22 52 -40 46 -40 -12 0
-101 58 -109 71 -11 18 8 8 63 -31z"/>
<path d="M3323 4883 c9 -2 23 -2 30 0 6 3 -1 5 -18 5 -16 0 -22 -2 -12 -5z"/>
<path d="M2150 4739 c-35 -41 -38 -46 -15 -28 11 9 28 19 38 22 9 4 17 13 17
22 0 22 -12 17 -40 -16z"/>
<path d="M2296 4755 c-11 -8 -17 -18 -13 -21 3 -3 16 3 28 15 26 24 14 28 -15
6z"/>
<path d="M2755 4704 c-236 -52 -431 -238 -490 -469 -59 -230 1 -464 159 -620
113 -112 246 -169 419 -181 106 -8 164 2 273 46 194 78 311 215 364 425 55
220 -9 451 -173 622 -142 149 -361 219 -552 177z m147 -60 c18 -9 40 -13 56
-9 20 5 30 1 43 -17 16 -20 21 -22 46 -12 37 14 62 2 91 -43 20 -30 28 -34 52
-30 32 7 55 -12 65 -56 4 -15 19 -36 32 -45 54 -36 73 -64 73 -103 0 -36 28
-79 52 -79 5 0 9 -26 8 -57 -1 -32 2 -73 6 -92 l7 -34 -54 8 c-30 4 -121 9
-204 10 -82 2 -153 4 -156 4 -15 2 -16 40 -2 45 27 11 38 6 20 -8 -29 -23 -7
-25 81 -10 114 20 334 104 271 104 -19 0 -222 -46 -280 -63 -46 -14 -119 -11
-119 4 0 5 10 9 23 9 37 0 156 63 247 130 88 66 95 91 12 45 -26 -15 -78 -40
-116 -56 -40 -17 -90 -49 -117 -74 -27 -25 -53 -45 -58 -45 -20 0 -23 23 -5
33 69 39 244 252 244 298 0 21 -189 -173 -231 -238 -23 -35 -48 -63 -55 -63
-20 0 -18 4 20 57 46 66 68 112 110 231 35 102 34 131 -4 70 -42 -68 -129
-255 -139 -296 -5 -24 -12 -46 -15 -49 -15 -15 -14 9 5 82 11 44 22 130 25
190 5 97 4 108 -9 92 -22 -26 -52 -191 -52 -284 0 -46 -3 -83 -6 -83 -4 0 -9
28 -13 63 -14 126 -38 271 -48 290 -8 16 -12 17 -19 6 -22 -35 2 -225 40 -311
15 -35 17 -48 7 -48 -7 0 -17 15 -23 33 -32 98 -68 180 -113 260 -52 94 -52
107 -3 107 12 0 26 8 32 17 8 15 12 16 34 4 26 -14 30 -13 77 14 31 18 25 18
62 -1z m-245 -115 c12 -30 39 -99 59 -154 20 -55 49 -116 64 -136 l29 -37 -23
-21 -23 -22 -71 53 c-76 57 -279 165 -290 154 -3 -4 -2 -10 4 -14 26 -18 153
-110 189 -137 22 -16 66 -39 98 -50 31 -10 57 -22 57 -26 0 -18 -21 -18 -57 0
-40 21 -157 51 -283 73 -81 15 -100 34 -56 58 21 11 26 21 28 64 3 46 6 53 40
75 24 16 39 34 44 54 8 40 26 57 58 57 16 0 38 13 58 34 18 19 37 33 43 32 5
-1 20 -27 32 -57z m-273 -340 c77 -34 206 -69 279 -76 37 -3 70 -10 73 -14 3
-5 2 -9 -3 -9 -179 -3 -398 -11 -402 -15 -12 -12 24 -23 118 -34 101 -12 201
-4 256 21 29 13 30 12 39 -24 5 -23 2 -30 -24 -43 -63 -33 -300 -212 -300
-227 0 -25 231 115 288 176 33 35 54 50 60 44 7 -7 -2 -21 -26 -42 -46 -40
-242 -287 -242 -305 0 -7 39 23 88 67 58 54 105 108 142 166 45 70 59 84 75
80 11 -3 32 -8 48 -11 l27 -5 0 -97 c0 -66 6 -119 20 -170 21 -73 48 -137 55
-129 9 9 -25 266 -43 331 -16 54 -17 67 -6 67 8 0 14 -7 14 -16 0 -57 160
-401 168 -360 7 35 -91 279 -141 349 -14 21 -16 32 -9 39 8 8 13 6 18 -8 4
-10 29 -50 55 -89 52 -77 219 -247 219 -223 0 17 -163 234 -221 293 -42 44
-47 55 -24 55 8 0 15 -4 15 -10 0 -22 160 -144 238 -182 46 -22 85 -38 88 -35
7 6 -162 145 -254 209 -36 25 -68 51 -70 57 -5 16 6 13 36 -8 75 -52 155 -82
305 -111 31 -6 57 -16 57 -22 0 -5 -11 -23 -25 -40 -16 -19 -25 -42 -25 -64 0
-27 -5 -36 -24 -44 -34 -12 -66 -50 -66 -76 0 -24 -39 -55 -77 -59 -13 -1 -37
-14 -52 -29 -20 -19 -37 -26 -69 -26 -25 0 -44 -6 -49 -14 -9 -16 -67 -23
-102 -12 -14 5 -40 3 -63 -5 -34 -11 -41 -10 -56 4 -14 15 -15 21 -3 50 49
121 84 315 64 352 -16 28 -39 -53 -63 -228 -25 -174 -32 -187 -86 -155 -45 27
-44 47 11 137 45 75 95 206 95 250 0 68 -68 -60 -129 -245 -23 -68 -46 -120
-54 -122 -8 -2 -22 8 -31 22 -10 17 -32 30 -61 37 -50 13 -58 20 -74 70 -8 26
-21 41 -41 49 -30 13 -34 18 -31 56 1 12 -11 37 -26 55 -17 21 -30 48 -31 69
-2 19 -8 73 -13 119 -8 71 -8 86 6 101 10 11 13 27 9 48 -4 18 -4 32 -2 32 3
0 27 -9 52 -21z m674 -133 c53 -19 140 -23 270 -12 l102 8 0 -30 c0 -17 -5
-34 -11 -38 -7 -4 -9 -23 -5 -51 3 -25 2 -43 -2 -41 -4 2 -29 15 -57 29 -43
23 -124 54 -302 116 -24 8 -43 19 -43 24 0 12 0 12 48 -5z"/>
<path d="M2490 4494 c0 -3 34 -46 75 -95 41 -49 82 -101 91 -114 19 -29 115
-108 122 -100 9 9 -84 151 -128 194 -44 43 -144 121 -155 121 -3 0 -5 -3 -5
-6z"/>
<path d="M2617 4014 c-107 -29 -229 -79 -260 -106 l-22 -20 25 7 c14 3 72 17
130 31 100 24 166 52 220 94 33 25 17 24 -93 -6z"/>
<path d="M3303 4710 c-44 -9 -88 -29 -80 -36 2 -2 32 5 66 16 35 11 68 17 74
13 6 -3 7 -1 3 5 -4 7 -10 12 -14 11 -4 -1 -26 -5 -49 -9z"/>
<path d="M2083 4685 c0 -8 4 -12 9 -9 5 3 6 10 3 15 -9 13 -12 11 -12 -6z"/>
<path d="M2240 4370 c-9 -6 -10 -10 -3 -10 6 0 15 5 18 10 8 12 4 12 -15 0z"/>
<path d="M2494 3481 c4 -7 -2 -15 -16 -20 -19 -7 -9 -11 52 -21 41 -7 87 -18
101 -26 44 -22 104 -41 119 -36 7 3 -22 17 -66 32 -66 22 -147 56 -188 78 -5
3 -6 0 -2 -7z"/>
<path d="M2784 3339 c-50 -14 -126 -71 -146 -109 -16 -29 -19 -48 -14 -116 5
-70 4 -83 -10 -88 -31 -12 -5 -101 47 -167 29 -36 29 -107 1 -146 -31 -44 -71
-71 -227 -158 -77 -42 -151 -87 -163 -98 -37 -34 -63 -93 -82 -186 -10 -47
-21 -93 -24 -101 -3 -8 -15 -75 -25 -149 -15 -106 -23 -137 -37 -148 -16 -11
-20 -30 -22 -102 l-4 -88 -136 -6 c-307 -14 -551 -2 -601 30 -15 10 -26 12
-30 5 -3 -6 -24 -12 -46 -14 l-40 -3 0 -450 0 -450 76 -3 c69 -3 78 -5 104
-32 l29 -30 1443 0 1443 0 0 60 c0 56 -2 60 -22 60 -13 0 -30 4 -38 10 -11 7
-9 11 14 19 15 6 32 9 37 5 5 -3 9 40 9 102 l0 107 -79 -6 -80 -5 -3 26 c-2
15 -2 138 0 275 l3 247 79 0 c80 0 80 0 80 26 l0 27 -105 -5 c-87 -4 -108 -8
-119 -23 -13 -18 -16 -18 -74 -1 -42 11 -119 18 -256 23 l-196 6 0 93 c0 77
-3 95 -17 102 -14 8 -19 37 -28 153 -6 79 -17 155 -23 169 -6 14 -18 59 -27
101 -26 124 -49 151 -211 243 -180 103 -191 111 -225 164 -40 63 -39 116 0
166 35 44 51 118 32 149 -9 13 -10 38 -6 77 8 73 -7 130 -48 177 -56 64 -145
88 -233 62z m39 -64 c-29 -14 -70 -36 -93 -50 -48 -30 -53 -16 -7 26 34 32 74
47 122 47 27 0 25 -2 -22 -23z m-13 -60 c-14 -8 -29 -14 -35 -14 -5 0 1 6 15
14 14 8 30 14 35 14 6 0 -1 -6 -15 -14z m137 -61 c3 -9 6 -32 7 -52 1 -33 -2
-36 -32 -43 -48 -10 -53 -19 -59 -93 -5 -59 -8 -66 -24 -61 -28 9 -23 -14 5
-27 45 -20 57 -6 50 58 -7 56 -7 56 17 48 13 -4 35 -8 49 -9 14 -1 28 -3 32
-3 3 -1 -2 -27 -13 -57 -10 -30 -19 -61 -19 -70 0 -23 -77 -102 -106 -109 -52
-13 -118 41 -139 114 -4 14 -14 40 -23 59 -13 28 -14 49 -5 132 5 54 15 105
23 113 19 24 228 23 237 0z m-283 -214 c7 -24 6 -24 -8 -6 -9 11 -16 29 -16
40 1 17 2 18 9 6 5 -8 12 -26 15 -40z m133 -241 c37 -28 69 -55 71 -59 1 -4
-4 -12 -12 -19 -17 -14 -45 -3 -84 33 -33 30 -66 96 -48 96 3 0 36 -23 73 -51z
m-43 -64 c31 -30 56 -57 56 -60 0 -15 -73 -94 -81 -89 -18 11 -69 109 -69 132
0 18 27 70 37 72 0 0 26 -25 57 -55z m261 26 c13 -26 13 -34 0 -72 -8 -23 -25
-57 -36 -76 -21 -33 -22 -34 -41 -16 -11 10 -29 31 -40 46 l-20 28 53 58 c30
32 57 59 61 60 4 0 14 -12 23 -28z m-350 -143 c27 -46 50 -85 52 -87 2 -3 14
6 28 19 22 21 27 22 40 9 13 -12 13 -37 0 -189 -23 -292 -35 -473 -35 -523 l0
-48 -107 3 -108 3 -3 39 -3 38 34 -21 c51 -31 53 -26 9 24 -46 52 -82 123 -82
160 l0 25 51 -26 c28 -14 53 -24 55 -22 2 2 -26 38 -62 79 -46 51 -81 104
-114 174 -37 77 -48 94 -49 72 -1 -16 -5 -26 -11 -22 -14 9 -13 4 21 -137 18
-70 29 -134 25 -143 -7 -20 -36 -13 -86 23 -26 18 -29 19 -11 3 25 -23 71
-112 71 -138 0 -9 -6 -13 -14 -10 -8 3 -53 13 -101 23 -55 11 -89 22 -93 32
-7 20 26 235 43 281 8 20 19 67 24 104 15 109 41 151 119 194 37 20 110 60
162 90 52 29 95 53 96 53 1 0 23 -37 49 -82z m465 47 c34 -19 74 -43 88 -54
15 -10 55 -33 90 -50 57 -29 66 -38 90 -89 22 -47 27 -71 27 -137 0 -56 -6
-90 -18 -115 l-18 -35 30 34 c17 19 34 31 38 27 9 -9 22 -129 22 -217 1 -48
-3 -68 -13 -72 -7 -3 -50 -9 -95 -12 -75 -7 -81 -6 -81 11 0 21 36 85 53 96
20 12 -1 20 -23 8 -11 -6 -29 -9 -38 -7 -13 3 -1 19 48 67 52 51 58 59 29 41
-20 -11 -45 -21 -57 -21 -19 0 -18 4 14 78 19 42 33 86 33 97 l0 20 -10 -20
c-6 -14 -8 3 -5 55 2 46 0 67 -5 55 -4 -11 -23 -58 -41 -104 -27 -70 -44 -98
-103 -160 -96 -104 -149 -170 -141 -178 3 -3 33 8 66 25 59 30 60 30 60 9 0
-23 -16 -50 -61 -109 -69 -88 -71 -108 -5 -63 20 14 39 25 41 25 2 0 0 -12 -4
-27 -7 -28 -8 -28 -98 -30 l-91 -3 -5 43 c-4 23 -9 96 -12 162 -4 66 -15 210
-25 319 -18 193 -16 236 10 236 5 0 17 -11 28 -25 l20 -26 49 91 c26 49 48 90
49 90 1 0 30 -16 64 -35z m-261 -39 c16 -19 -6 -68 -28 -64 -23 5 -39 57 -21
68 21 13 36 12 49 -4z m-14 -118 c14 -66 27 -281 24 -408 -1 -80 -2 -180 -2
-222 l-1 -78 -43 0 -43 0 0 93 c0 97 28 576 36 615 2 12 9 22 14 22 5 0 12
-10 15 -22z m-385 -613 c6 -27 14 -58 17 -67 4 -15 -2 -18 -32 -18 l-37 0 6
58 c13 108 24 115 46 27z m782 -22 c4 -60 3 -63 -19 -63 -21 0 -23 4 -23 51 0
53 16 97 30 83 4 -5 10 -37 12 -71z m-982 36 c42 -11 100 -45 100 -59 0 -14
-32 -12 -86 6 -25 8 -48 13 -51 11 -4 -4 62 -32 117 -49 8 -3 -36 -8 -99 -11
-62 -4 -117 -4 -122 -1 -8 4 -3 80 7 113 4 14 59 10 134 -10z m1258 -46 l3
-53 -70 -2 c-39 -1 -84 -2 -101 -3 -42 -3 -37 14 10 32 56 22 50 35 -7 18 -37
-11 -49 -12 -55 -2 -4 6 -3 16 2 21 20 20 118 46 165 43 l50 -2 3 -52z m-827
-404 l1 -274 -51 -3 -51 -3 0 275 0 275 48 3 c26 2 48 3 50 2 1 0 3 -124 3
-275z m349 215 l0 -54 -96 0 -95 0 3 -47 3 -48 88 -3 88 -3 -3 -56 -3 -57 -80
0 c-44 -1 -81 -4 -82 -8 -2 -5 -3 -26 -3 -48 l0 -40 90 0 90 0 0 -65 0 -65
-137 0 c-76 0 -142 4 -148 8 -6 4 -9 104 -7 274 l3 267 137 3 c75 2 140 2 145
0 4 -2 7 -28 7 -58z m-1460 -213 c0 -149 -3 -272 -7 -274 -5 -3 -34 -2 -65 0
l-58 5 0 269 0 269 65 0 65 0 0 -269z m186 186 c44 -45 102 -113 129 -149 28
-37 52 -68 55 -68 3 0 3 39 2 87 -2 49 -1 116 3 151 l7 62 53 0 c46 0 53 -3
59 -22 3 -13 6 -137 6 -275 l0 -253 -29 0 c-17 0 -41 10 -55 23 -28 26 -176
194 -208 238 -12 16 -25 29 -30 29 -4 0 -8 -63 -8 -139 0 -77 -3 -142 -7 -144
-5 -2 -31 -1 -60 2 l-51 6 -5 268 -5 267 33 0 c27 0 44 -12 111 -83z m631 68
c57 -24 100 -61 130 -113 25 -41 28 -57 28 -132 0 -76 -3 -91 -31 -140 -56
-99 -160 -150 -311 -150 l-83 0 0 275 0 275 115 0 c81 0 127 -5 152 -15z m803
-95 l0 -110 63 0 c109 0 106 -3 109 114 l3 101 58 3 57 3 0 -277 0 -276 -22 6
c-13 3 -37 6 -55 6 l-32 0 -3 108 -3 107 -70 1 c-111 3 -105 9 -105 -112 l0
-104 -55 0 -54 0 -3 270 -3 270 58 0 57 0 0 -110z m450 -134 c0 -134 -3 -257
-6 -274 -6 -30 -9 -31 -49 -29 l-43 2 -5 95 c-5 85 -4 269 1 403 l2 47 50 0
50 0 0 -244z m321 229 c52 -19 84 -47 110 -97 35 -69 14 -157 -51 -211 -30
-26 -31 -29 -20 -57 7 -16 32 -58 56 -92 24 -35 40 -66 36 -70 -4 -3 -31 -4
-60 0 l-53 7 -57 85 c-44 66 -63 86 -83 88 -27 3 -27 3 -34 -90 l-6 -93 -50 3
-49 4 0 223 c0 122 -3 243 -6 269 l-7 46 115 0 c78 0 130 -5 159 -15z m-2381
-745 c0 -6 -27 -10 -60 -10 -33 0 -60 4 -60 10 0 6 27 10 60 10 33 0 60 -4 60
-10z m1860 0 c0 -5 -16 -10 -35 -10 -19 0 -35 5 -35 10 0 6 16 10 35 10 19 0
35 -4 35 -10z"/>
<path d="M2723 3049 c-7 -7 -13 -18 -13 -25 0 -15 28 -26 43 -17 7 4 8 0 4
-12 -6 -15 -3 -17 25 -11 42 8 64 34 44 54 -19 19 -88 27 -103 11z"/>
<path d="M2785 2850 c3 -5 21 -10 38 -10 18 0 39 -5 47 -10 11 -7 6 -10 -20
-10 -26 0 -31 -3 -20 -10 24 -15 55 -12 73 8 31 34 21 42 -54 42 -44 0 -68 -4
-64 -10z"/>
<path d="M3036 2315 c-19 -14 -18 -15 15 -15 19 0 41 5 49 11 11 8 8 9 -13 4
-19 -4 -26 -2 -22 5 9 14 -7 12 -29 -5z"/>
<path d="M3100 2271 c0 -21 23 -45 33 -34 4 3 7 17 7 30 0 16 -6 23 -20 23
-13 0 -20 -7 -20 -19z"/>
<path d="M2985 2209 c-4 -17 -5 -32 -3 -33 1 -2 60 -6 130 -8 l126 -5 5 31 c7
44 -4 51 -66 38 -34 -7 -68 -7 -93 -2 -73 17 -92 13 -99 -21z"/>
<path d="M2260 1364 l0 -157 50 5 c95 9 156 81 148 175 -7 84 -68 133 -165
133 l-33 0 0 -156z"/>
<path d="M3830 1448 l0 -73 66 5 c72 6 94 22 94 70 0 39 -27 57 -97 65 l-63 7
0 -74z"/>
<path d="M4270 1471 c0 -52 8 -65 34 -55 12 4 16 20 16 55 0 46 -2 49 -25 49
-23 0 -25 -3 -25 -49z"/>
<path d="M4270 1262 c0 -55 4 -62 31 -55 15 4 19 14 19 54 0 46 -2 49 -25 49
-23 0 -25 -3 -25 -48z"/>
</g>
</svg>
